<?xml version="1.0" encoding="UTF-8" standalone="no"?>
<!-- Created with Inkscape (http://www.inkscape.org/) -->

<svg
   width="210mm"
   height="297mm"
   viewBox="0 0 210 297"
   version="1.1"
   id="svg1626"
   inkscape:version="1.1.1 (3bf5ae0d25, 2021-09-20)"
   sodipodi:docname="Logo.svg"
   xmlns:inkscape="http://www.inkscape.org/namespaces/inkscape"
   xmlns:sodipodi="http://sodipodi.sourceforge.net/DTD/sodipodi-0.dtd"
   xmlns="http://www.w3.org/2000/svg"
   xmlns:svg="http://www.w3.org/2000/svg">
  <sodipodi:namedview
     id="namedview1628"
     pagecolor="#ffffff"
     bordercolor="#666666"
     borderopacity="1.0"
     inkscape:pageshadow="2"
     inkscape:pageopacity="0.0"
     inkscape:pagecheckerboard="0"
     inkscape:document-units="mm"
     showgrid="false"
     inkscape:zoom="0.72337262"
     inkscape:cx="397.44385"
     inkscape:cy="694.66274"
     inkscape:window-width="1920"
     inkscape:window-height="1001"
     inkscape:window-x="-9"
     inkscape:window-y="-9"
     inkscape:window-maximized="1"
     inkscape:current-layer="layer1" />
  <defs
     id="defs1623" />
  <g
     inkscape:label="Capa 1"
     inkscape:groupmode="layer"
     id="layer1">
    <g
       id="Layer1006"
       transform="matrix(0.36509402,0,0,0.36509402,1396.7268,-101.10707)">
      <path
         d="m -3547.6011,484.3699 a 184.2937,184.2937 0 0 1 184.2937,184.2937 184.2937,184.2937 0 1 1 -184.2937,-184.2937 z"
         style="fill:none;stroke:#102a83;stroke-width:7.6176;stroke-linecap:butt;stroke-linejoin:miter;stroke-dasharray:none"
         id="path117" />
      <path
         d="m -3547.6011,473.5281 a 195.1355,195.1355 0 0 1 195.1356,195.1355 195.1355,195.1355 0 1 1 -195.1356,-195.1355 z"
         style="fill:none;stroke:#102a83;stroke-width:3.8106;stroke-linecap:butt;stroke-linejoin:miter;stroke-dasharray:none"
         id="path119" />
      <path
         d="m -3418.8771,701.8211 c -0.8594,2.9976 -1.8262,5.942 -2.883,8.8369 -4.4323,-14.9855 -10.8403,-25.8765 -5.0975,-31.585 -6.1516,3.976 -77.8559,8.5264 -103.8322,4.0042 -0.7809,1.5923 -0.8876,3.1458 -1.2445,5.6068 16.7023,3.0857 78.1073,-0.4697 89.4284,-1.9787 -30.2733,10.0701 -70.2842,13.043 -103.3404,12.1127 l -48.634,48.7628 c 23.3607,4.1779 31.2608,8.0179 135.2061,16.7279 62.218,2.1276 38.4326,-49.9723 37.5145,-53.6507 22.8745,53.8739 -26.5652,55.6141 -37.2874,54.0739 -22.6087,18.2041 -54.634,31.561 -85.1984,31.561 -72.0293,0 -130.4206,-58.3917 -130.4206,-130.4206 0,-72.0293 58.3913,-130.4206 130.4206,-130.4206 23.7751,0 46.0622,6.3653 65.2564,17.4795 -14.126,13.2369 -30.3141,30.1842 -49.4603,52.4653 -3.6922,4.2967 -5.0137,10.1218 -1.416,14.4982 v 3e-4 c 3.5977,4.3764 10.1219,5.0137 14.4982,1.416 14.7816,-18.126 30.2627,-34.4348 46.8618,-49.2656 -8.9047,9.0868 -17.166,18.6883 -24.5712,29.0158 -3.1174,4.3474 -4.4339,9.7006 -0.9098,13.7253 h 4e-4 c 3.5242,4.0247 9.7009,4.4339 13.7253,0.9093 10.4613,-13.2974 21.3614,-25.5423 32.9491,-37.0718 0.2983,0.3311 0.5943,0.664 0.8892,0.9981 -5.4164,6.4095 -10.5775,13.027 -15.4578,19.9051 -3.3505,4.7222 -4.5307,10.6186 -0.6065,14.8764 v 0 c 3.9245,4.2579 11.3915,4.912 15.6498,0.9878 4.512,-6.1915 9.8354,-11.5835 14.7508,-17.3915 12.4441,19.9801 18.2612,42.6009 18.2612,67.8724 0,12.1599 -1.7006,24.2601 -5.0522,35.9488 z m -173.866,-73.829 c -2.3033,-3.8845 -5.9166,-7.5374 -6.909,-11.654 -1.3379,-5.5462 -1.9078,-12.9969 -0.8061,-19.374 0.68,-3.9375 3.1665,-7.2399 6.6019,-9.4952 3.7695,-2.4746 7.4746,-3.9618 12.195,-4.2834 4.2392,-0.2887 8.7737,0.6598 12.3317,3.6572 2.5855,2.1782 3.4686,3.2742 4.4084,6.8635 1.1215,4.2842 1.7684,12.6773 -0.2053,16.1283 -2.3189,4.0552 -4.4137,8.1105 -6.733,12.1657 7.2511,0.1051 18.4114,-2.693 22.9961,1.8106 l 15.2453,18.3321 41.9285,-7.9226 -57.7045,57.1608 0.036,-3.2529 39.8383,-39.6649 -31.4699,15.3854 -7.9428,-7.8918 -0.4659,35.4215 -27.8864,28.9473 c -3.6799,-9.9862 -13.1976,-25.0002 -19.4383,-35.3263 -0.877,-2.6845 -1.2172,-5.2133 -0.7497,-7.4921 1.3523,-4.9413 3.3173,-8.8876 5.3645,-13.4236 0.4987,-2.2259 -2.4267,-5.2696 -5.683,-2.8857 -4.9242,5.0537 -7.0042,18.6022 -4.7851,25.3668 1.3245,3.1066 22.0322,31.1674 25.0528,33.9476 l -23.6509,24.316 -21.7893,25.1077 -2.3249,-1.9314 21.2288,-23.9203 -46.4054,-15.1496 c -9.3996,-12.326 -20.4449,-33.6402 -17.0681,-52.7094 l 39.8718,10.7561 c 1.7481,-8.686 2.1184,-9.4575 2.9611,-12.1496 -7.576,-2.8861 -27.8353,-7.8396 -44.167,-15.9394 0.771,-1.9089 0.9992,-2.1432 3.1146,-4.9192 13.288,6.7927 28.081,11.5009 42.7583,15.2837 2.0156,-10.2765 3.1592,-18.7633 8.7226,-22.2177 z"
         style="fill:#102a83;fill-rule:evenodd"
         id="path121" />
      <path
         d="m -3530.385,600.9982 c 26.9574,-33.5174 98.9398,-95.799 134.9301,-110.9163 4.5409,-3.7325 11.3102,-3.0715 15.043,1.4694 v 2e-4 c 3.7327,4.5406 3.7136,12.2704 -1.4694,15.0427 -53.9779,28.8712 -96.7042,64.0429 -134.9301,110.9162 -4.5408,3.7328 -11.3101,3.0714 -15.0427,-1.4693 l -2e-4,-4e-4 c -3.7327,-4.5407 -2.2146,-10.4621 1.4693,-15.0425 z"
         style="fill:#fdbd00;fill-rule:evenodd"
         id="path123" />
      <path
         d="m -3493.6838,596.4998 c 31.4587,-43.8712 77.7699,-75.1405 124.0806,-108.6601 4.1758,-3.6567 10.5842,-3.2321 14.2409,0.9437 h 2e-4 c 3.6567,4.1758 3.7391,11.2611 -0.9436,14.2409 -51.2613,32.6197 -89.9213,65.2391 -124.0806,108.6601 -4.1758,3.6567 -10.5842,3.2321 -14.241,-0.9437 h -2e-4 c -3.6567,-4.1758 -2.2908,-9.7302 0.9437,-14.2409 z"
         style="fill:#feb101;fill-rule:evenodd"
         id="path125" />
      <path
         d="m -3461.3154,594.9083 c 33.4061,-47.0787 79.4144,-82.456 131.2729,-120.9837 4.4177,-4.0715 11.3635,-3.7882 15.435,0.6297 h 2e-4 c 4.0718,4.4182 4.1627,11.8117 -0.6297,15.435 -50.9586,38.5277 -96.9663,73.9051 -131.2727,120.9838 -4.418,4.0715 -11.3633,3.7884 -15.435,-0.6296 l -2e-4,-2e-4 c -4.0716,-4.4177 -2.8471,-10.5353 0.6295,-15.435 z"
         style="fill:#fb6901;fill-rule:evenodd"
         id="path127" />
      <path
         d="m -3686.7274,626.9799 -2.0861,8.973 3.9246,2.2708 -1.8796,8.0838 -23.387,-15.6057 2.0153,-8.6685 27.8631,-3.6468 -1.928,8.2929 z m -5.9382,0.3863 -9.8617,0.6568 8.558,4.9516 z m -10.3429,-23.4132 4.8503,-9.566 16.1275,3.5969 -12.4269,-10.8955 4.8281,-9.5219 23.4688,11.8994 -3.0083,5.9333 -17.8913,-9.0716 15.5702,13.6491 -2.7257,5.3759 -20.2068,-4.5047 17.8913,9.0716 -3.0083,5.9329 z m 46.5545,-34.1221 -5.6979,7.2389 2.5893,3.7218 -5.1337,6.5219 -14.5504,-24.0578 5.5048,-6.9934 26.7758,8.5264 -5.2659,6.6898 z m -5.5406,-2.1706 -9.2079,-3.592 5.6464,8.1161 z m 0.7471,-25.4764 5.9637,-4.6941 16.7398,5.3131 -8.9863,-11.4159 6.035,-4.7509 16.2754,20.6765 -6.0354,4.7504 -16.6472,-5.2845 8.9367,11.3538 -6.0064,4.728 z m 28.6825,-21.7218 10.7965,-5.4301 c 2.1226,-1.0678 3.9923,-1.6449 5.5893,-1.7284 1.5992,-0.0777 3.0983,0.2038 4.4994,0.8499 1.3985,0.6541 2.6472,1.5958 3.7516,2.837 1.1093,1.2381 2.0632,2.6579 2.8697,4.2609 1.2632,2.5116 1.9585,4.6026 2.0804,6.2762 0.1272,1.6708 -0.083,3.23 -0.6298,4.6773 -0.5474,1.4476 -1.3226,2.6194 -2.331,3.5173 -1.3779,1.2278 -2.715,2.168 -4.0064,2.8171 l -10.7962,5.4301 z m 9.931,1.6693 6.4567,12.8373 1.7836,-0.8972 c 1.5211,-0.7653 2.5196,-1.48 2.9973,-2.1383 0.4694,-0.6613 0.6789,-1.5001 0.6244,-2.5215 -0.057,-1.027 -0.5592,-2.4754 -1.5063,-4.3577 -1.2522,-2.4898 -2.5131,-3.9877 -3.7908,-4.4967 -1.2777,-0.5093 -2.8606,-0.2891 -4.7482,0.6602 z m 40.0165,0.8232 -8.7001,3.0282 0.176,4.5306 -7.8385,2.728 0.7044,-28.1065 8.4053,-2.9257 17.9629,21.6098 -8.0407,2.7985 z m -3.4979,-4.814 -5.8217,-7.9874 0.384,9.8799 z m 8.1863,-18.9752 8.9618,-1.0979 6.36,8.1436 4.1821,-9.4354 8.9127,-1.0922 -8.2807,16.4236 1.3398,10.9371 -8.0979,0.9923 -1.3398,-10.9374 z m 36.3045,-3.1249 21.6936,1.6529 -0.427,5.6065 -13.5584,-1.0332 -0.3181,4.1775 12.5687,0.9578 -0.4076,5.35 -12.5687,-0.9577 -0.3939,5.1668 13.9614,1.064 -0.4522,5.9364 -22.0966,-1.6838 z m 57.9993,11.4281 7.5767,3.0263 -9.7607,24.4364 -7.5763,-3.0266 z m 16.2933,6.9661 11.7138,6.7596 c 2.5516,1.4727 4.1124,3.1794 4.6846,5.1291 0.5672,1.9466 0.2057,4.0434 -1.0892,6.2872 -1.3291,2.3028 -3.0647,3.7051 -5.1961,4.2007 -2.1349,0.501 -4.6252,-0.0735 -7.4686,-1.7146 l -3.8624,-2.229 -4.8678,8.4354 -7.0663,-4.0777 z m 1.4457,13.8178 1.7348,1.0011 c 1.3684,0.7898 2.4671,1.1052 3.2911,0.9517 0.824,-0.1539 1.4491,-0.5997 1.8742,-1.3368 0.4134,-0.7162 0.5235,-1.459 0.3288,-2.2362 -0.1897,-0.7741 -0.9478,-1.5436 -2.2743,-2.3093 l -2.016,-1.1634 z m 25.148,3.0065 16.507,14.1725 -3.6628,4.2662 -10.3169,-8.8578 -2.7292,3.1786 9.5638,8.2114 -3.4952,4.0708 -9.5638,-8.2114 -3.3756,3.9318 10.6232,9.1211 -3.8781,4.517 -16.8136,-14.4362 z m 18.2289,42.2847 4.3024,-3.387 7.7745,9.8757 -8.7927,6.9219 c -2.7791,-0.8762 -4.9745,-1.8526 -6.5817,-2.9341 -1.6111,-1.0857 -3.1985,-2.627 -4.7669,-4.6194 -1.9325,-2.4545 -3.0898,-4.7863 -3.4685,-6.9904 -0.3836,-2.2 -0.08,-4.3802 0.9048,-6.5352 0.9801,-2.1513 2.5477,-4.0713 4.6895,-5.7573 2.2571,-1.7768 4.5832,-2.8518 6.9847,-3.2381 2.3965,-0.3817 4.7344,-0.016 7.014,1.0971 1.7711,0.8739 3.5886,2.499 5.4526,4.8666 1.7962,2.2816 2.9341,4.1528 3.4102,5.6099 0.4804,1.4613 0.5791,2.904 0.2953,4.336 -0.2842,1.4316 -0.9429,2.8621 -1.9806,4.2872 l -5.9489,-5.2796 c 0.584,-0.8724 0.8484,-1.7744 0.7848,-2.7066 -0.059,-0.9364 -0.4579,-1.869 -1.2004,-2.8126 -1.0991,-1.3958 -2.464,-2.1295 -4.0914,-2.1965 -1.6278,-0.0675 -3.4937,0.731 -5.5969,2.3866 -2.2332,1.7581 -3.5014,3.4347 -3.7958,5.0308 -0.2987,1.5913 0.1443,3.1448 1.3264,4.6461 0.5608,0.7124 1.1962,1.3112 1.9143,1.7981 0.7151,0.4819 1.6495,0.9467 2.7996,1.3977 l 1.9349,-1.523 z m 33.8242,24.7831 3.347,7.3999 -14.2814,6.4594 c -1.4122,0.6389 -2.8522,1.0214 -4.3074,1.1486 -1.461,0.1291 -2.8728,-0.0651 -4.2427,-0.5821 -1.3699,-0.5166 -2.475,-1.2065 -3.3272,-2.0647 -1.1817,-1.2 -2.232,-2.8088 -3.1432,-4.8236 -0.5276,-1.1665 -1.0191,-2.4766 -1.4808,-3.9284 -0.4617,-1.4514 -0.6605,-2.7535 -0.5943,-3.8994 0.067,-1.1459 0.3696,-2.3048 0.917,-3.4731 0.5444,-1.1737 1.2278,-2.1151 2.048,-2.8286 1.3165,-1.147 2.5638,-1.9866 3.7409,-2.5192 l 14.2815,-6.4594 3.347,7.4003 -14.6217,6.6133 c -1.3059,0.5905 -2.163,1.4153 -2.5683,2.4659 -0.4088,1.0587 -0.3227,2.2301 0.2579,3.5135 0.5729,1.2667 1.3874,2.1014 2.4411,2.4991 1.0453,0.3942 2.2366,0.2925 3.5649,-0.3082 z m -11.1584,36.9083 -2.072,-8.9759 -4.523,-0.3139 -1.8667,-8.0868 27.8665,3.7321 2.0019,8.6716 -23.4212,15.5275 -1.9147,-8.2959 z m 5.1634,-2.958 8.5687,-4.9265 -9.8636,-0.6838 z"
         style="fill:#102a83;fill-rule:evenodd"
         id="path129" />
      <path
         d="m -3612.4288,789.5821 8.8728,4.4499 c 1.9329,0.9691 3.15,2.1527 3.6533,3.5565 0.4986,1.4019 0.3238,2.9539 -0.5288,4.6537 -0.8747,1.744 -2.0861,2.8461 -3.6266,3.3009 -1.5425,0.4583 -3.3916,0.1448 -5.5455,-0.9352 l -2.9257,-1.467 -3.2042,6.3893 -5.3527,-2.6846 z m 1.653,10.0624 1.3139,0.659 c 1.0366,0.52 1.8548,0.7037 2.4518,0.5558 0.5977,-0.1481 1.0362,-0.5017 1.3162,-1.0601 0.272,-0.5425 0.3211,-1.0915 0.1447,-1.6526 -0.1722,-0.5589 -0.7607,-1.0903 -1.7653,-1.5943 l -1.5268,-0.7657 z m 17.4102,15.611 -6.4164,-2.1315 -1.9249,2.7143 -5.7809,-1.9207 12.9877,-16.0358 6.1985,2.0595 0.7801,20.6097 -5.9302,-1.9702 z m 0.1192,-4.3661 0.1878,-7.2514 -4.1977,5.9192 z m 7.8758,-9.771 6.4514,1.5116 2.3207,7.2202 5.2693,-5.4419 6.4164,1.5032 -9.8613,9.2186 -1.8449,7.8743 -5.8305,-1.3661 1.845,-7.8743 z m 17.6361,17.3816 5.675,0.077 c 0.051,0.9234 0.2491,1.6419 0.5893,2.1459 0.5551,0.822 1.3996,1.2788 2.5379,1.3657 0.8472,0.0647 1.517,-0.0827 2.0042,-0.4465 0.4926,-0.3642 0.7562,-0.808 0.7962,-1.3326 0.038,-0.4975 -0.1433,-0.9623 -0.5478,-1.3897 -0.4046,-0.4278 -1.3897,-0.8724 -2.9539,-1.3482 -2.5646,-0.7817 -4.3608,-1.7032 -5.3981,-2.7607 -1.0468,-1.0537 -1.5127,-2.3337 -1.3977,-3.84 0.075,-0.9859 0.4332,-1.8967 1.0743,-2.7314 0.6407,-0.8389 1.5543,-1.464 2.7444,-1.8777 1.1904,-0.4145 2.787,-0.5451 4.7908,-0.392 2.4609,0.1874 4.2998,0.7878 5.5207,1.8053 1.2213,1.0126 1.8766,2.528 1.9707,4.5463 l -5.6194,-0.0953 c -0.081,-0.8853 -0.3467,-1.5459 -0.7916,-1.9763 -0.4492,-0.4358 -1.093,-0.6835 -1.9315,-0.7471 -0.6902,-0.0529 -1.2259,0.0549 -1.5977,0.32 -0.3721,0.2648 -0.5741,0.6099 -0.6061,1.0313 -0.023,0.3043 0.1,0.5889 0.3627,0.8571 0.2541,0.2766 0.8994,0.5604 1.9318,0.8598 2.5569,0.7585 4.3741,1.4701 5.4506,2.1291 1.0816,0.6598 1.8477,1.4301 2.2937,2.3208 0.4465,0.8865 0.6298,1.856 0.5494,2.9097 -0.094,1.2327 -0.5219,2.3451 -1.2831,3.3375 -0.7649,0.9878 -1.7756,1.7085 -3.0453,2.1531 -1.2644,0.4442 -2.827,0.5958 -4.6918,0.4533 -3.2723,-0.2495 -5.4921,-1.0548 -6.6555,-2.4102 -1.1635,-1.3558 -1.7543,-3.0103 -1.7722,-4.9642 z m 31.7358,4.3867 -6.7573,0.2304 -0.8617,3.2141 -6.088,0.208 6.6065,-19.5496 6.5279,-0.2229 7.8926,19.0548 -6.2453,0.2129 z m -1.4053,-4.1356 -2.3436,-6.8648 -1.8793,7.0091 z m 7.47,-12.1878 5.4933,-0.9234 8.9105,9.3142 -1.7684,-10.5153 5.5592,-0.9349 3.2026,19.0452 -5.5592,0.9349 -8.8609,-9.2636 1.7589,10.4579 -5.5333,0.9302 z m 19.5496,-3.456 8.4628,-2.6552 c 1.6644,-0.5223 3.0869,-0.7188 4.2537,-0.5901 1.1677,0.133 2.2202,0.5143 3.1585,1.1482 0.9356,0.6392 1.7288,1.4693 2.3817,2.499 0.6571,1.0282 1.1798,2.1692 1.5741,3.4263 0.6179,1.9684 0.8735,3.5653 0.7638,4.792 -0.1055,1.2255 -0.4423,2.3295 -1.0099,3.3135 -0.5676,0.9836 -1.2678,1.7409 -2.1048,2.2716 -1.1432,0.7265 -2.2232,1.2491 -3.2354,1.5665 l -8.4632,2.6552 z m 6.9958,2.3848 3.1573,10.0628 1.3981,-0.4389 c 1.1928,-0.3741 2,-0.7733 2.4244,-1.1939 0.4183,-0.4236 0.6689,-1.0061 0.7505,-1.7527 0.08,-0.7505 -0.112,-1.8591 -0.5749,-3.3341 -0.6126,-1.952 -1.3486,-3.1866 -2.2137,-3.7063 -0.8651,-0.5203 -2.0377,-0.5481 -3.5177,-0.0838 z m 21.7995,-13.1778 5.3878,-2.5513 4.923,10.3973 c 0.4865,1.0282 0.7859,2.0804 0.8975,3.1467 0.1139,1.07 -0.011,2.1089 -0.3722,3.1207 -0.3619,1.0118 -0.8537,1.8316 -1.4731,2.4682 -0.8651,0.8819 -2.0327,1.6739 -3.4994,2.3683 -0.8491,0.4019 -1.8046,0.7798 -2.8636,1.1368 -1.0594,0.3573 -2.0122,0.52 -2.8541,0.4857 -0.8419,-0.0339 -1.696,-0.2411 -2.5604,-0.6278 -0.8685,-0.3844 -1.5679,-0.8743 -2.102,-1.467 -0.8587,-0.9513 -1.4903,-1.8556 -1.8964,-2.7132 l -4.923,-10.3972 5.3874,-2.5509 5.0403,10.6453 c 0.4499,0.9505 1.0667,1.5691 1.8427,1.8533 0.7821,0.2861 1.6404,0.208 2.5748,-0.2347 0.9223,-0.4365 1.5246,-1.0449 1.8031,-1.8232 0.2758,-0.7722 0.1859,-1.6453 -0.272,-2.6118 z m -5.3024,-3.1307 4.1691,-1.9737 -2.1669,5.3832 -2.3158,1.0968 z"
         style="fill:#102a83;fill-rule:evenodd"
         id="path131" />
      <path
         d="m -3687.2725,833.1548 3.7216,6.6132 c -1.7612,1.1302 -3.4951,1.8272 -5.1985,2.0778 -1.7033,0.2591 -3.3531,0.1024 -4.9583,-0.479 -1.6007,-0.5772 -3.2698,-1.696 -5.0026,-3.3605 -2.1067,-2.0239 -3.5277,-3.9773 -4.2806,-5.8694 -0.7447,-1.8921 -0.8589,-4.0706 -0.3518,-6.5353 0.5066,-2.4644 1.9145,-4.9031 4.2149,-7.2975 3.0702,-3.1961 6.2818,-4.8365 9.6355,-4.9215 3.3534,-0.076 6.5874,1.3776 9.7021,4.3699 2.4353,2.3397 3.8815,4.6723 4.3297,6.9987 0.4439,2.3219 0.031,4.8331 -1.2569,7.5254 l -6.3865,-3.8936 c 0.3773,-0.7626 0.5947,-1.376 0.6514,-1.8406 0.099,-0.7789 0.027,-1.5236 -0.2211,-2.2294 -0.2483,-0.7146 -0.6715,-1.3547 -1.2705,-1.9301 -1.3592,-1.306 -2.9222,-1.7603 -4.6845,-1.3672 -1.3187,0.2823 -2.8128,1.2881 -4.4688,3.0118 -2.0585,2.1427 -3.1397,3.9169 -3.2525,5.3408 -0.1083,1.4193 0.4249,2.6932 1.6041,3.8262 1.1432,1.0981 2.3148,1.6089 3.5181,1.5273 1.1994,-0.0768 2.5175,-0.6021 3.9552,-1.567 z m 18.4059,20.9982 -7.6399,-5.4556 -3.6652,2.8129 -6.8831,-4.915 23.7966,-15.9565 7.3805,5.2701 -7.4043,27.6622 -7.0606,-5.042 z m 1.9457,-5.7433 3.2185,-9.5445 -7.9932,6.1347 z m 19.2654,-7.0205 6.9103,3.4718 2.3389,17.7438 6.6466,-13.2296 6.9943,3.5138 -12.0379,23.9607 -6.9942,-3.5138 -2.325,-17.6462 -6.6101,13.1573 -6.9608,-3.4971 z m 20.4574,25.0463 c 1.3816,-4.1516 3.6124,-7.0013 6.6965,-8.5402 3.0864,-1.5454 6.6923,-1.6282 10.8264,-0.2528 4.2347,1.4091 7.1198,3.632 8.6567,6.6628 1.5355,3.037 1.6183,6.6039 0.2568,10.696 -0.9893,2.9732 -2.2966,5.2418 -3.9302,6.8099 -1.6333,1.5684 -3.577,2.5662 -5.8192,2.9974 -2.2479,0.4297 -4.7804,0.1723 -7.6054,-0.7677 -2.8667,-0.9535 -5.0896,-2.1996 -6.6699,-3.7386 -1.5718,-1.5426 -2.619,-3.4959 -3.1275,-5.8626 -0.5108,-2.3601 -0.2735,-5.0309 0.7158,-8.0042 z m 7.8474,2.6309 c -0.8532,2.5645 -0.9882,4.572 -0.4071,6.0086 0.5868,1.4385 1.7028,2.4349 3.3492,2.9826 1.688,0.5615 3.1861,0.4481 4.4745,-0.3402 1.2962,-0.792 2.4125,-2.6047 3.3604,-5.4533 0.7963,-2.3927 0.8918,-4.3015 0.2931,-5.7245 -0.6029,-1.4304 -1.7288,-2.4169 -3.3868,-2.9685 -1.5871,-0.5281 -3.054,-0.3912 -4.3858,0.4088 -1.3376,0.7982 -2.4363,2.4981 -3.2975,5.0865 z m 35.8109,18.9246 -9.1409,-2.1387 -2.3196,3.9957 -8.2352,-1.927 15.937,-23.8096 8.8308,2.0662 3.6754,28.3992 -8.4479,-1.9769 z m -0.3855,-6.0517 -0.6545,-10.051 -5.0582,8.7142 z m 12.3483,3.8705 7.8792,0.1063 c 0.071,1.2824 0.3461,2.2799 0.8183,2.9792 0.7708,1.1418 1.9432,1.7756 3.5241,1.8961 1.1761,0.0898 2.1055,-0.1148 2.7827,-0.6205 0.6832,-0.5052 1.0494,-1.122 1.105,-1.8502 0.052,-0.6908 -0.1987,-1.336 -0.7608,-1.9296 -0.5616,-0.5938 -1.9296,-1.2112 -4.1015,-1.8714 -3.5603,-1.0848 -6.0545,-2.3644 -7.4951,-3.8324 -1.4536,-1.463 -2.1007,-3.24 -1.9414,-5.3311 0.1043,-1.3695 0.6015,-2.6334 1.491,-3.7925 0.8901,-1.1653 2.158,-2.0327 3.8106,-2.6082 1.6526,-0.5751 3.8699,-0.7565 6.6521,-0.5445 3.4169,0.2602 5.97,1.0933 7.6651,2.5058 1.696,1.4063 2.6059,3.5102 2.7366,6.3119 l -7.8023,-0.1312 c -0.1129,-1.2294 -0.4814,-2.1464 -1.0993,-2.7445 -0.6236,-0.6044 -1.5177,-0.9479 -2.6813,-1.0367 -0.9584,-0.0731 -1.7025,0.0766 -2.2187,0.4445 -0.5165,0.3674 -0.7968,0.847 -0.8413,1.4318 -0.032,0.4235 0.1377,0.8181 0.5037,1.1903 0.3526,0.3838 1.2489,0.7775 2.6821,1.1934 3.5504,1.0533 6.0733,2.0403 7.5685,2.9556 1.5016,0.9156 2.5654,1.9857 3.1848,3.2225 0.6199,1.2302 0.8742,2.5767 0.7628,4.039 -0.1304,1.7119 -0.724,3.2568 -1.7808,4.6344 -1.0621,1.3717 -2.4655,2.3729 -4.2275,2.9897 -1.7561,0.6171 -3.9255,0.8274 -6.5146,0.6302 -4.5434,-0.3464 -7.6258,-1.4636 -9.2413,-3.3461 -1.6157,-1.8819 -2.4358,-4.1791 -2.4607,-6.8918 z m 39.7222,-16.4305 8.2528,-0.629 0.7696,10.101 7.8874,-10.7606 10.9851,-0.8371 -8.9935,10.7887 11.4789,15.9142 -10.1634,0.7745 -6.4754,-10.5492 -3.9476,4.7954 0.4964,6.5103 -8.2528,0.6288 z m 49.1425,15.2232 -9.1474,2.1112 -0.3197,4.6092 -8.2412,1.902 3.8041,-28.3975 8.837,-2.0395 15.8224,23.8677 -8.4537,1.9511 z m -3.0146,-5.2617 -5.0199,-8.7321 -0.697,10.0516 z m 2.9012,-17.477 8.6791,-3.0532 8.112,6.7139 2.0979,-10.3059 8.632,-3.0368 -4.6491,18.1576 3.7265,10.5925 -7.8429,2.7592 -3.7265,-10.5925 z m 49.9074,4.1318 -8.4144,4.163 0.7515,4.5586 -7.5807,3.7505 -2.8446,-28.5097 8.1289,-4.0215 20.8979,19.5778 -7.7763,3.8471 z m -4.1463,-4.4252 -6.8975,-7.3397 1.6387,9.9416 z m 3.0161,-19.3833 6.751,-4.788 5.8603,8.263 1.2218,-13.2857 8.9861,-6.3731 -2.1552,13.879 18.034,7.7332 -8.314,5.8966 -10.9826,-5.7095 -0.915,6.1432 3.7769,5.3254 -6.751,4.7883 z m 34.8894,-2.4726 5.6024,-5.5415 c 0.964,0.849 1.8677,1.3527 2.6974,1.5066 1.3544,0.2515 2.6286,-0.1394 3.8234,-1.1815 0.8887,-0.7755 1.3949,-1.5814 1.5094,-2.4188 0.1194,-0.8413 -0.064,-1.5349 -0.5434,-2.0851 -0.4555,-0.5222 -1.0916,-0.7954 -1.9091,-0.8116 -0.8172,-0.0161 -2.2167,0.5258 -4.2106,1.6109 -3.2706,1.7765 -5.932,2.6567 -7.9889,2.6536 -2.0622,0.01 -3.7828,-0.7753 -5.1613,-2.3556 -0.9028,-1.035 -1.455,-2.276 -1.6571,-3.7228 -0.2064,-1.4519 0.065,-2.9642 0.8138,-4.5456 0.7492,-1.5812 2.1753,-3.2888 4.2778,-5.1231 2.5823,-2.2527 4.9668,-3.488 7.1628,-3.7054 2.1918,-0.2223 4.3297,0.6049 6.4182,2.4769 l -5.5666,5.4689 c -0.955,-0.7818 -1.8672,-1.1625 -2.727,-1.1415 -0.8682,0.0204 -1.7401,0.4167 -2.6197,1.184 -0.7243,0.6318 -1.1396,1.2671 -1.2393,1.893 -0.1004,0.6256 0.045,1.1619 0.4303,1.6038 0.2789,0.32 0.6797,0.4757 1.2016,0.476 0.521,0.0175 1.4303,-0.3447 2.732,-1.0747 3.2411,-1.7917 5.7141,-2.8973 7.4154,-3.321 1.7056,-0.4281 3.2145,-0.4354 4.5304,-0.01 1.3121,0.4213 2.4499,1.1846 3.414,2.2899 1.1285,1.2934 1.813,2.8 2.0543,4.5195 0.2321,1.7192 -0.039,3.4217 -0.8348,5.1103 -0.792,1.6846 -2.1637,3.3781 -4.1208,5.0854 -3.4333,2.9951 -6.3918,4.4084 -8.8664,4.2395 -2.4747,-0.1687 -4.6874,-1.1954 -6.6382,-3.0804 z"
         style="fill:#102a83;fill-rule:evenodd"
         id="path133" />
    </g>
  </g>
</svg>
