<svg version="1.2" xmlns="http://www.w3.org/2000/svg" viewBox="0 0 170 170" width="35" height="35">
	<style>
		.s0 { fill: none;stroke: #102a83;stroke-width: 2.8 } 
		.s1 { fill: none;stroke: #102a83;stroke-width: 1.4 } 
		.s2 { fill: #102a83 } 
		.s3 { fill: #fdbd00 } 
		.s4 { fill: #feb101 } 
		.s5 { fill: #fb6901 } 
	</style>
	<g id="layer1">
		<g id="Layer1006">
			<path id="path117" class="s0" d="m80.52 13.73c8.83 0 17.58 1.74 25.75 5.13 8.16 3.38 15.58 8.33 21.83 14.58 6.24 6.25 11.2 13.67 14.58 21.83 3.38 8.16 5.12 16.91 5.12 25.75 0 27.21-16.39 51.75-41.53 62.16-25.14 10.42-54.09 4.66-73.33-14.58-19.24-19.25-25-48.19-14.58-73.33 10.41-25.14 34.94-41.54 62.16-41.54z"/>
			<path id="path119" class="s1" d="m80.52 9.78c9.35 0 18.62 1.84 27.26 5.42 8.65 3.58 16.5 8.83 23.12 15.44 6.61 6.62 11.86 14.47 15.44 23.11 3.58 8.65 5.42 17.91 5.42 27.27 0 28.81-17.36 54.79-43.98 65.82-26.62 11.02-57.26 4.93-77.64-15.45-20.37-20.37-26.47-51.01-15.44-77.64 11.03-26.62 37-43.97 65.82-43.97z"/>
			<path id="path121" fill-rule="evenodd" class="s2" d="m127.52 93.12q-0.48 1.64-1.06 3.23c-1.62-5.47-3.96-9.45-1.86-11.53-2.24 1.45-28.42 3.11-37.91 1.46-0.28 0.58-0.32 1.15-0.45 2.05 6.1 1.12 28.52-0.17 32.65-0.73-11.05 3.68-25.66 4.77-37.73 4.43l-17.76 17.8c8.53 1.53 11.42 2.93 49.37 6.11 22.71 0.77 14.03-18.25 13.69-19.59 8.35 19.67-9.7 20.3-13.61 19.74-8.25 6.65-19.95 11.52-31.11 11.52-10.79 0-20.74-3.58-28.72-9.63l7.94-9.15 8.63-8.88c-1.1-1.02-8.66-11.26-9.14-12.4-0.81-2.47-0.05-7.41 1.74-9.26 1.19-0.87 2.26 0.24 2.08 1.06-0.75 1.65-1.47 3.09-1.96 4.9-0.17 0.83-0.05 1.75 0.27 2.73 2.28 3.77 5.76 9.25 7.1 12.9l10.18-10.57 0.01-0.76-0.01 0.76 21.07-20.87-15.31 2.9-5.56-6.7c-1.68-1.64-5.75-0.62-8.4-0.66 0.85-1.48 1.61-2.96 2.46-4.44 0.72-1.26 0.48-4.32 0.08-5.89-0.35-1.31-0.67-1.71-1.61-2.5-1.3-1.1-2.96-1.44-4.51-1.34-1.72 0.12-3.07 0.66-4.45 1.56-1.25 0.83-2.16 2.03-2.41 3.47-0.4 2.33-0.19 5.05 0.3 7.07 0.36 1.51 1.68 2.84 2.52 4.26l-7.86 6.95c-2.03 1.26-2.45 4.36-3.19 8.11-5.36-1.38-10.76-3.1-15.61-5.58-0.77 1.02-0.85 1.1-1.13 1.8 5.96 2.96 13.35 4.77 16.12 5.82-0.31 0.98-0.44 1.26-1.08 4.44l-14.56-3.93c-1.23 6.96 2.8 14.74 6.23 19.24l16.95 5.53-7.75 8.74 0.45 0.37c-11.24-8.7-18.48-22.34-18.48-37.66 0-26.3 21.32-47.62 47.61-47.62 8.68 0 16.82 2.33 23.83 6.38-5.16 4.84-11.07 11.02-18.06 19.16-1.35 1.57-1.83 3.69-0.52 5.29 1.32 1.6 3.7 1.83 5.3 0.52 5.39-6.62 11.05-12.57 17.11-17.99-3.25 3.32-6.27 6.83-8.97 10.6-1.14 1.58-1.62 3.54-0.34 5.01 1.29 1.47 3.55 1.62 5.01 0.33 3.82-4.86 7.8-9.33 12.03-13.53q0.17 0.18 0.33 0.36-2.97 3.5-5.64 7.27c-1.23 1.72-1.66 3.87-0.23 5.43 1.44 1.55 4.16 1.79 5.72 0.36 1.64-2.26 3.59-4.23 5.38-6.35 4.55 7.29 6.67 15.55 6.67 24.78 0 4.44-0.62 8.86-1.84 13.12zm-74.52 24.87l0.02-0.01q-0.21-0.16-0.41-0.32zm26.87-29.86v0.43zm0 0l0.15-11.75 2.9 2.88 11.49-5.62z"/>
			<path id="path123" fill-rule="evenodd" class="s3" d="m86.8 56.31c9.85-12.23 36.13-34.97 49.27-40.49 1.65-1.36 4.13-1.12 5.49 0.54 1.36 1.65 1.35 4.48-0.54 5.49-19.7 10.54-35.3 23.38-49.26 40.49-1.66 1.37-4.13 1.12-5.49-0.53-1.36-1.66-0.81-3.82 0.53-5.5z"/>
			<path id="path125" fill-rule="evenodd" class="s4" d="m100.2 54.67c11.49-16.02 28.4-27.43 45.3-39.67 1.53-1.33 3.87-1.18 5.2 0.34 1.34 1.53 1.37 4.12-0.34 5.2-18.72 11.91-32.83 23.82-45.3 39.68-1.53 1.33-3.87 1.18-5.2-0.35-1.34-1.52-0.84-3.55 0.34-5.2z"/>
			<path id="path127" fill-rule="evenodd" class="s5" d="m112.02 54.09c12.2-17.19 28.99-30.1 47.93-44.17 1.61-1.49 4.15-1.38 5.63 0.23 1.49 1.61 1.52 4.31-0.23 5.64-18.6 14.06-35.4 26.98-47.92 44.17-1.62 1.48-4.15 1.38-5.64-0.23-1.49-1.62-1.04-3.85 0.23-5.64z"/>
			<path id="path129" fill-rule="evenodd" class="s2" d="m29.72 65.8l-0.76 3.28 1.44 0.82-0.69 2.96-8.54-5.7 0.74-3.17 10.17-1.33-0.7 3.03zm-2.17 0.14l-3.6 0.24 3.12 1.81zm-3.77-8.55l1.77-3.49 5.88 1.31-4.53-3.98 1.76-3.47 8.57 4.34-1.1 2.17-6.53-3.31 5.68 4.98-0.99 1.96-7.38-1.64 6.53 3.31-1.1 2.16zm17-12.45l-2.08 2.64 0.95 1.36-1.88 2.38-5.31-8.78 2.01-2.56 9.77 3.12-1.92 2.44zm-2.02-0.79l-3.36-1.32 2.06 2.97zm0.27-9.3l2.18-1.72 6.11 1.94-3.28-4.17 2.2-1.73 5.95 7.55-2.21 1.73-6.08-1.93 3.27 4.15-2.2 1.73zm10.48-7.94l3.94-1.98q1.16-0.58 2.04-0.63 0.87-0.04 1.64 0.31 0.77 0.36 1.37 1.04 0.61 0.68 1.05 1.55 0.69 1.38 0.76 2.29 0.07 0.92-0.23 1.71-0.3 0.79-0.85 1.29-0.76 0.67-1.47 1.02l-3.94 1.99zm3.63 0.61l2.36 4.68 0.65-0.32q0.83-0.42 1.09-0.78 0.26-0.37 0.23-0.93-0.03-0.56-0.55-1.59-0.69-1.36-1.39-1.64-0.69-0.28-1.73 0.24zm14.61 0.3l-3.18 1.11 0.07 1.65-2.86 1 0.25-10.26 3.07-1.07 6.56 7.89-2.93 1.02zm-1.28-1.76l-2.13-2.91 0.14 3.6zm2.99-6.92l3.27-0.4 2.33 2.97 1.52-3.45 3.26-0.39-3.03 5.99 0.49 3.99-2.95 0.37-0.49-4zm13.25-1.14l7.92 0.61-0.15 2.04-4.95-0.37-0.12 1.52 4.59 0.35-0.15 1.95-4.59-0.35-0.14 1.89 5.09 0.39-0.16 2.17-8.07-0.62zm21.18 4.17l2.76 1.11-3.56 8.92-2.77-1.1zm5.95 2.54l4.28 2.47q1.4 0.8 1.71 1.87 0.31 1.07-0.4 2.29-0.73 1.27-1.9 1.54-1.16 0.27-2.72-0.63l-1.41-0.81-1.78 3.08-2.58-1.49zm0.53 5.04l0.63 0.37q0.75 0.43 1.2 0.35 0.45-0.09 0.69-0.49 0.22-0.39 0.12-0.82-0.11-0.42-0.83-0.84l-0.74-0.42zm9.18 1.09l6.03 5.18-1.34 1.55-3.76-3.23-1 1.16 3.49 3-1.28 1.49-3.49-3-1.23 1.43 3.88 3.33-1.42 1.65-6.14-5.27zm6.66 15.44l1.57-1.24 2.84 3.61-3.21 2.53q-1.52-0.48-2.4-1.08-0.89-0.59-1.74-1.68-1.06-1.35-1.27-2.55-0.21-1.21 0.33-2.39 0.54-1.18 1.71-2.1 1.24-0.97 2.55-1.18 1.31-0.21 2.56 0.4 0.97 0.48 1.99 1.77 0.99 1.25 1.25 2.05 0.26 0.8 0.11 1.58-0.16 0.79-0.73 1.57l-2.17-1.93q0.32-0.48 0.29-0.99-0.03-0.51-0.44-1.02-0.6-0.77-1.49-0.81-0.9-0.03-2.05 0.88-1.22 0.96-1.38 1.83-0.17 0.88 0.48 1.7 0.31 0.39 0.7 0.66 0.39 0.26 1.02 0.51l0.71-0.56zm12.35 9.05l1.22 2.7-5.22 2.36q-0.77 0.35-1.57 0.42-0.8 0.07-1.55-0.22-0.75-0.28-1.21-0.75-0.65-0.66-1.15-1.76-0.29-0.64-0.54-1.43-0.25-0.8-0.22-1.43 0.04-0.63 0.34-1.27 0.3-0.64 0.75-1.03 0.72-0.63 1.36-0.92l5.22-2.36 1.22 2.7-5.34 2.42q-0.72 0.32-0.94 0.9-0.22 0.58 0.1 1.28 0.31 0.7 0.89 0.91 0.57 0.22 1.3-0.11zm-4.08 13.48l-0.75-3.28-1.65-0.11-0.68-2.96 10.17 1.37 0.73 3.16-8.55 5.67-0.7-3.03zm1.89-1.08l3.12-1.8-3.6-0.25z"/>
			<path id="path131" fill-rule="evenodd" class="s2" d="m56.85 125.16l3.24 1.63q1.06 0.53 1.33 1.3 0.28 0.77-0.19 1.7-0.48 0.95-1.32 1.2-0.85 0.25-2.03-0.34l-1.07-0.54-1.17 2.34-1.95-0.98zm0.6 3.67l0.48 0.24q0.57 0.29 0.9 0.2 0.33-0.08 0.48-0.38 0.15-0.3 0.05-0.61-0.09-0.3-0.64-0.58l-0.56-0.28zm6.36 5.7l-2.35-0.78-0.7 0.99-2.11-0.7 4.74-5.85 2.26 0.75 0.29 7.53-2.17-0.72zm0.05-1.6l0.07-2.65-1.54 2.17zm2.88-3.57l2.35 0.55 0.85 2.64 1.93-1.99 2.34 0.55-3.6 3.36-0.68 2.88-2.12-0.5 0.67-2.87zm6.44 6.34l2.07 0.03q0.03 0.51 0.22 0.78 0.3 0.45 0.92 0.5 0.47 0.04 0.73-0.16 0.27-0.2 0.29-0.49 0.03-0.27-0.2-0.51-0.22-0.23-1.07-0.49-1.41-0.43-1.97-1.01-0.58-0.57-0.52-1.4 0.05-0.54 0.4-0.99 0.35-0.46 1-0.69 0.65-0.23 1.75-0.14 1.35 0.1 2.01 0.66 0.67 0.55 0.72 1.66l-2.05-0.04q-0.04-0.48-0.29-0.72-0.24-0.24-0.7-0.27-0.38-0.03-0.59 0.11-0.2 0.15-0.22 0.38-0.01 0.17 0.14 0.31 0.13 0.15 0.7 0.32 1.4 0.41 1.99 0.77 0.59 0.36 0.84 0.85 0.24 0.49 0.2 1.06-0.05 0.68-0.47 1.22-0.42 0.54-1.11 0.79-0.69 0.24-1.71 0.16-1.8-0.13-2.43-0.88-0.64-0.74-0.65-1.81zm11.58 1.6l-2.46 0.09-0.32 1.17-2.22 0.08 2.41-7.14 2.39-0.08 2.88 6.95-2.28 0.08zm-0.52-1.51l-0.85-2.5-0.69 2.55zm2.73-4.44l2.01-0.34 3.25 3.4-0.65-3.84 2.03-0.34 1.17 6.95-2.03 0.34-3.23-3.38 0.64 3.82-2.02 0.34zm7.14-1.26l3.09-0.97q0.91-0.29 1.55-0.22 0.64 0.07 1.15 0.42 0.51 0.35 0.87 0.91 0.36 0.57 0.58 1.25 0.34 1.08 0.28 1.75-0.06 0.67-0.37 1.21-0.31 0.54-0.77 0.83-0.63 0.4-1.18 0.57l-3.09 0.97zm2.55 0.87l1.15 3.68 0.51-0.16q0.66-0.21 0.89-0.44 0.23-0.23 0.27-0.64 0.05-0.41-0.21-1.21-0.33-1.07-0.8-1.36-0.48-0.28-1.29-0.03zm7.96-4.81l1.97-0.93 1.79 3.8q0.27 0.56 0.33 1.14 0.06 0.59-0.13 1.14-0.2 0.56-0.54 0.9-0.48 0.49-1.28 0.87-0.46 0.22-1.04 0.41-0.59 0.2-1.05 0.18-0.46-0.02-0.93-0.23-0.48-0.21-0.77-0.53-0.47-0.52-0.69-0.99l-1.8-3.8 1.97-0.93 1.84 3.89q0.25 0.52 0.67 0.67 0.43 0.16 0.94-0.08 0.51-0.24 0.66-0.67 0.15-0.42-0.1-0.95zm-1.94-1.15l1.53-0.72-0.79 1.97-0.85 0.4z"/>
			<path id="path133" fill-rule="evenodd" class="s2" d="m29.53 141.07l1.35 2.42q-0.96 0.62-1.89 0.76-0.94 0.14-1.81-0.18-0.88-0.31-1.83-1.23-1.15-1.1-1.56-2.14-0.41-1.04-0.13-2.38 0.28-1.36 1.54-2.67 1.68-1.75 3.52-1.8 1.83-0.04 3.54 1.6 1.33 1.28 1.58 2.55 0.24 1.28-0.46 2.75l-2.33-1.42q0.2-0.42 0.24-0.67 0.05-0.43-0.09-0.82-0.13-0.39-0.46-0.7-0.74-0.71-1.71-0.5-0.72 0.16-1.63 1.1-1.13 1.17-1.19 1.95-0.06 0.78 0.59 1.4 0.62 0.6 1.28 0.55 0.66-0.04 1.45-0.57zm6.72 7.67l-2.79-1.99-1.34 1.02-2.51-1.79 8.68-5.83 2.7 1.93-2.71 10.1-2.57-1.84zm0.71-2.1l1.17-3.48-2.92 2.24zm7.04-2.57l2.52 1.27 0.85 6.48 2.43-4.83 2.55 1.28-4.39 8.75-2.55-1.28-0.85-6.45-2.42 4.81-2.54-1.28zm7.47 9.14q0.76-2.27 2.45-3.11 1.69-0.85 3.95-0.1 2.32 0.78 3.16 2.44 0.84 1.66 0.09 3.9-0.54 1.63-1.43 2.49-0.9 0.86-2.13 1.09-1.23 0.24-2.77-0.28-1.57-0.52-2.44-1.36-0.86-0.85-1.14-2.14-0.28-1.3 0.26-2.93zm2.87 0.96q-0.47 1.41-0.15 2.2 0.32 0.79 1.22 1.09 0.93 0.3 1.63-0.13 0.71-0.43 1.23-1.99 0.44-1.31 0.11-2.09-0.33-0.78-1.24-1.08-0.87-0.29-1.6 0.15-0.73 0.44-1.2 1.85zm13.07 6.91l-3.34-0.78-0.84 1.46-3.01-0.7 5.82-8.69 3.22 0.75 1.34 10.37-3.08-0.72zm-0.14-2.21l-0.24-3.67-1.85 3.18zm4.51 1.41l2.88 0.04q0.04 0.7 0.3 1.09 0.42 0.62 1.28 0.69 0.65 0.05 1.02-0.23 0.37-0.27 0.4-0.67 0.03-0.38-0.27-0.71-0.31-0.32-1.5-0.68-1.95-0.59-2.74-1.4-0.79-0.8-0.71-1.94 0.06-0.75 0.55-1.39 0.48-0.64 1.39-0.95 0.9-0.32 2.43-0.2 1.87 0.14 2.8 0.91 0.92 0.77 0.99 2.31l-2.84-0.05q-0.07-0.67-0.41-1-0.34-0.33-0.97-0.38-0.53-0.04-0.81 0.16-0.29 0.2-0.31 0.53-0.02 0.23 0.18 0.43 0.2 0.21 0.98 0.44 1.95 0.57 2.77 1.08 0.82 0.5 1.16 1.17 0.34 0.68 0.28 1.48-0.07 0.93-0.65 1.69-0.58 0.75-1.55 1.09-0.96 0.34-2.38 0.23-2.48-0.19-3.37-1.22-0.88-1.03-0.9-2.52zm14.5-6l3.02-0.23 0.28 3.69 2.88-3.93 4.01-0.3-3.28 3.94 4.19 5.81-3.71 0.28-2.37-3.85-1.44 1.75 0.18 2.38-3.01 0.22zm17.94 5.56l-3.34 0.77-0.12 1.69-3.01 0.69 1.39-10.37 3.23-0.74 5.78 8.71-3.09 0.71zm-1.1-1.92l-1.83-3.18-0.26 3.67zm1.06-6.39l3.17-1.11 2.96 2.45 0.77-3.76 3.15-1.11-1.7 6.63 1.36 3.87-2.86 1-1.36-3.86zm18.22 1.5l-3.07 1.52 0.27 1.67-2.77 1.37-1.03-10.41 2.96-1.47 7.63 7.15-2.84 1.4zm-1.51-1.61l-2.52-2.68 0.6 3.63zm1.1-7.08l2.47-1.75 2.14 3.02 0.44-4.85 3.28-2.33-0.78 5.07 6.58 2.82-3.04 2.16-4.01-2.09-0.33 2.24 1.38 1.95-2.47 1.75zm12.74-0.91l2.05-2.02q0.53 0.47 0.98 0.55 0.74 0.14 1.4-0.43 0.49-0.42 0.55-0.88 0.06-0.46-0.2-0.76-0.25-0.29-0.7-0.3-0.44-0.01-1.53 0.59-1.79 0.97-2.92 0.97-1.13 0-1.88-0.86-0.5-0.57-0.61-1.36-0.11-0.8 0.3-1.66 0.41-0.87 1.56-1.87 1.41-1.24 2.62-1.36 1.2-0.12 2.34 0.91l-2.03 1.99q-0.53-0.42-1-0.41-0.47 0.01-0.96 0.43-0.39 0.35-0.45 0.69-0.05 0.34 0.16 0.59 0.15 0.17 0.44 0.17 0.28 0.01 0.99-0.39 1.78-0.98 2.71-1.21 0.94-0.24 1.66-0.01 0.71 0.23 1.24 0.84 0.62 0.71 0.75 1.65 0.13 0.94-0.3 1.86-0.44 0.93-1.51 1.86-1.88 1.64-3.23 1.55-1.36-0.09-2.43-1.13z"/>
		</g>
	</g>
</svg>